<svg width="32" height="32" viewBox="0 0 32 32" fill="none" xmlns="http://www.w3.org/2000/svg">
    <path d="M25.333 3.99992H24V2.66659C24 2.29992 23.7 1.99992 23.333 1.99992C22.967 1.99992 22.667 2.29992 22.667 2.66659V3.99992H9.33333V2.66659C9.33333 2.29992 9.03333 1.99992 8.66667 1.99992C8.3 1.99992 8 2.29992 8 2.66659V3.99992H6.66667C5.2 3.99992 4 5.19992 4 6.66659V26.6666C4 28.1333 5.2 29.3333 6.66667 29.3333H25.333C26.8 29.3333 28 28.1333 28 26.6666V6.66659C28 5.19992 26.8 3.99992 25.333 3.99992ZM26.667 26.6666C26.667 27.4 26.067 27.9999 25.333 27.9999H6.66667C5.93333 27.9999 5.33333 27.4 5.33333 26.6666V10.6666H26.667V26.6666ZM26.667 9.33325H5.33333V6.66659C5.33333 5.93325 5.93333 5.33325 6.66667 5.33325H8V6.66659C8 7.03325 8.3 7.33325 8.66667 7.33325C9.03333 7.33325 9.33333 7.03325 9.33333 6.66659V5.33325H22.667V6.66659C22.667 7.03325 22.967 7.33325 23.333 7.33325C23.7 7.33325 24 7.03325 24 6.66659V5.33325H25.333C26.067 5.33325 26.667 5.93325 26.667 6.66659V9.33325Z" fill="#1A73E8"/>
    <path d="M14.6667 14.6667H9.33333C8.96667 14.6667 8.66667 14.9667 8.66667 15.3334C8.66667 15.7 8.96667 16 9.33333 16H14.6667C15.0333 16 15.3333 15.7 15.3333 15.3334C15.3333 14.9667 15.0333 14.6667 14.6667 14.6667Z" fill="#1A73E8"/>
    <path d="M22.6667 14.6667H17.3333C16.9667 14.6667 16.6667 14.9667 16.6667 15.3334C16.6667 15.7 16.9667 16 17.3333 16H22.6667C23.0333 16 23.3333 15.7 23.3333 15.3334C23.3333 14.9667 23.0333 14.6667 22.6667 14.6667Z" fill="#1A73E8"/>
    <path d="M14.6667 18.6667H9.33333C8.96667 18.6667 8.66667 18.9667 8.66667 19.3334C8.66667 19.7 8.96667 20 9.33333 20H14.6667C15.0333 20 15.3333 19.7 15.3333 19.3334C15.3333 18.9667 15.0333 18.6667 14.6667 18.6667Z" fill="#1A73E8"/>
    <path d="M22.6667 18.6667H17.3333C16.9667 18.6667 16.6667 18.9667 16.6667 19.3334C16.6667 19.7 16.9667 20 17.3333 20H22.6667C23.0333 20 23.3333 19.7 23.3333 19.3334C23.3333 18.9667 23.0333 18.6667 22.6667 18.6667Z" fill="#1A73E8"/>
    <path d="M14.6667 22.6667H9.33333C8.96667 22.6667 8.66667 22.9667 8.66667 23.3334C8.66667 23.7 8.96667 24 9.33333 24H14.6667C15.0333 24 15.3333 23.7 15.3333 23.3334C15.3333 22.9667 15.0333 22.6667 14.6667 22.6667Z" fill="#1A73E8"/>
    <path d="M22.6667 22.6667H17.3333C16.9667 22.6667 16.6667 22.9667 16.6667 23.3334C16.6667 23.7 16.9667 24 17.3333 24H22.6667C23.0333 24 23.3333 23.7 23.3333 23.3334C23.3333 22.9667 23.0333 22.6667 22.6667 22.6667Z" fill="#1A73E8"/>
</svg>
