<svg xmlns="http://www.w3.org/2000/svg" viewBox="0 0 240 60" width="240" height="60">
  <!-- Cloud Icon -->
  <path d="M40 26c0-6.6-5.4-12-12-12-5.2 0-9.6 3.3-11.3 8C11.2 22 6 27.2 6 33.5 6 39.9 11.1 45 17.5 45h21c4.7 0 8.5-3.8 8.5-8.5 0-4.3-3.3-8-7.6-8.4C39.8 27.4 40 26.7 40 26z" fill="#4285F4"/>

  <!-- "NEXT" text -->
  <path d="M54 38.5V18h4l12 15V18h4v20.5h-4L58 23v15.5h-4z" fill="#1A73E8"/>
  <path d="M80 38.5V18h16v3.5H84v5h10v3.5H84v5h12v3.5H80z" fill="#1A73E8"/>
  <path d="M118 24.5l-4-2c-1.1-0.5-1.9-1-1.9-2 0-1 0.8-1.7 2.2-1.7 1.6 0 2.7 0.8 2.7 2h4c0-3.3-2.5-5.5-6.5-5.5-3.8 0-6.5 2-6.5 5.5 0 2.5 1.4 4 4.5 5.5l4 2c1.6 0.8 2.2 1.4 2.2 2.5 0 1.3-1.3 2.2-3 2.2-2.2 0-3.5-1.3-3.7-3.3h-4c0.2 3.8 3 6.8 7.7 6.8 4.2 0 7-2.2 7-6 0-2.8-1.3-4.4-4.7-6z" fill="#1A73E8"/>
  <path d="M134 22h-8v-4h20v4h-8v16.5h-4V22z" fill="#1A73E8"/>

  <!-- '25 -->
  <circle cx="162" cy="28.5" r="10" fill="#34A853"/>
  <text x="158" y="32.5" font-family="Arial, sans-serif" font-size="12" font-weight="bold" fill="white">'25</text>
</svg>
